<svg width="22" height="22" viewBox="0 0 22 22" fill="none" xmlns="http://www.w3.org/2000/svg">
<path fill-rule="evenodd" clip-rule="evenodd" d="M13 9C13 11.2056 11.2056 13 9 13C6.7944 13 5 11.2056 5 9C5 6.7944 6.7944 5 9 5C11.2056 5 13 6.7944 13 9ZM1 9.06127C1 13.5061 4.61612 17.1225 9.06115 17.1225C10.5797 17.1225 12.0013 16.6997 13.2151 15.967L18.2481 21L21 18.2486L15.9668 13.2153C16.6995 12.0014 17.1223 10.5798 17.1223 9.06127C17.1223 4.61645 13.5062 1 9.06115 1C4.61612 1 1 4.61645 1 9.06127Z" fill="#003642"/>
<path d="M13.2151 15.967L13.5687 15.6134L13.2919 15.3366L12.9568 15.5389L13.2151 15.967ZM18.2481 21L17.8945 21.3536L18.2481 21.7071L18.6016 21.3536L18.2481 21ZM21 18.2486L21.3535 18.6022L21.7071 18.2486L21.3536 17.8951L21 18.2486ZM15.9668 13.2153L15.5387 12.9569L15.3364 13.2921L15.6132 13.5689L15.9668 13.2153ZM12.5 9C12.5 10.9295 10.9295 12.5 9 12.5V13.5C11.4817 13.5 13.5 11.4817 13.5 9H12.5ZM9 12.5C7.07054 12.5 5.5 10.9295 5.5 9H4.5C4.5 11.4817 6.51826 13.5 9 13.5V12.5ZM5.5 9C5.5 7.07054 7.07054 5.5 9 5.5V4.5C6.51826 4.5 4.5 6.51826 4.5 9H5.5ZM9 5.5C10.9295 5.5 12.5 7.07054 12.5 9H13.5C13.5 6.51826 11.4817 4.5 9 4.5V5.5ZM0.5 9.06127C0.5 13.7822 4.33996 17.6225 9.06115 17.6225V16.6225C4.89228 16.6225 1.5 13.23 1.5 9.06127H0.5ZM9.06115 17.6225C10.6738 17.6225 12.1843 17.1733 13.4735 16.3951L12.9568 15.5389C11.8183 16.2262 10.4857 16.6225 9.06115 16.6225V17.6225ZM12.8616 16.3205L17.8945 21.3536L18.6016 20.6464L13.5687 15.6134L12.8616 16.3205ZM18.6016 21.3536L21.3535 18.6022L20.6465 17.895L17.8946 20.6464L18.6016 21.3536ZM21.3536 17.8951L16.3203 12.8618L15.6132 13.5689L20.6464 18.6022L21.3536 17.8951ZM16.3948 13.4737C17.1731 12.1844 17.6223 10.6739 17.6223 9.06127H16.6223C16.6223 10.4858 16.2259 11.8184 15.5387 12.9569L16.3948 13.4737ZM17.6223 9.06127C17.6223 4.34033 13.7823 0.5 9.06115 0.5V1.5C13.23 1.5 16.6223 4.89258 16.6223 9.06127H17.6223ZM9.06115 0.5C4.33996 0.5 0.5 4.34033 0.5 9.06127H1.5C1.5 4.89258 4.89228 1.5 9.06115 1.5V0.5Z" fill="#FFC93D"/>
</svg>
