<svg id="Layer_1" data-name="Layer 1" xmlns="http://www.w3.org/2000/svg" viewBox="0 0 270 52"><defs><style>.cls-1{fill:#ffc745;}.cls-2{fill:#406cb3;}.cls-3{fill:#1d9174;}.cls-4{fill:#f2726b;}.cls-5{fill:#fff;}</style></defs><path class="cls-1" d="M22.68,43.1s3-25.07,1-26.21a17.66,17.66,0,0,0-9.84-3h0V25.17C18.09,27.7,22.68,36.56,22.68,43.1Z"/><path class="cls-2" d="M13.84,25.17A17.65,17.65,0,0,0,5,22.8H5v6.45A17.68,17.68,0,0,0,22.68,46.94V40.49A17.67,17.67,0,0,0,13.84,25.17Z"/><path class="cls-3" d="M40.37,5.06A17.69,17.69,0,0,0,23.68,16.89c4.73,3.18,6.54,10.15,6.78,12.79s1.07,12.81,1.07,14.89a17.69,17.69,0,0,0,8.84-15.32V5.06Z"/><path class="cls-4" d="M31.53,31.59a17.68,17.68,0,0,0-7.85-14.7,17.76,17.76,0,0,0-1,5.86V46.94h0a17.68,17.68,0,0,0,8.85-2.37v-13Z"/><path class="cls-5" d="M64.73,30.44a19.31,19.31,0,0,1-.33,3.61,8,8,0,0,1-1.23,3.1,6.52,6.52,0,0,1-2.6,2.17,10.34,10.34,0,0,1-4.43.81,9.25,9.25,0,0,1-5.39-1.52,7.15,7.15,0,0,1-2.85-4.75l5.43-1.33a2.54,2.54,0,0,0,.89,1.68,2.64,2.64,0,0,0,1.77.68,2.3,2.3,0,0,0,1.59-.51,3.11,3.11,0,0,0,.84-1.28,6,6,0,0,0,.32-1.65q.06-.89.06-1.65V12.55h5.93Z"/><path class="cls-5" d="M85.6,39.45H80.13V36.94h-.07A6.12,6.12,0,0,1,79.28,38a4.76,4.76,0,0,1-1.16,1,6.48,6.48,0,0,1-3.46.95,8,8,0,0,1-3.51-.66,5,5,0,0,1-2.09-1.84,7.4,7.4,0,0,1-1-2.78,23.17,23.17,0,0,1-.24-3.45V21h5.69v9q0,.79.06,1.65a5.29,5.29,0,0,0,.34,1.58,2.48,2.48,0,0,0,2.57,1.63,3.45,3.45,0,0,0,1.78-.4,2.74,2.74,0,0,0,1-1.06,4.32,4.32,0,0,0,.47-1.5,12.33,12.33,0,0,0,.12-1.75V21H85.6Z"/><path class="cls-5" d="M99.41,26.42a4,4,0,0,0-3.31-1.56,3,3,0,0,0-1.4.34A1.21,1.21,0,0,0,94,26.38a1.07,1.07,0,0,0,.71,1A10.12,10.12,0,0,0,96.5,28l2.32.53a8.92,8.92,0,0,1,2.32.89A5.3,5.3,0,0,1,102.92,31a4.94,4.94,0,0,1,.71,2.8,5.15,5.15,0,0,1-.78,2.94,6,6,0,0,1-2,1.86,8.54,8.54,0,0,1-2.73,1,16.35,16.35,0,0,1-3,.28,14.43,14.43,0,0,1-3.92-.55,7.31,7.31,0,0,1-3.34-2l3.46-3.84a5.71,5.71,0,0,0,1.76,1.5,4.8,4.8,0,0,0,2.26.51,5.3,5.3,0,0,0,1.79-.28,1.06,1.06,0,0,0,.8-1,1.16,1.16,0,0,0-.71-1.08,7.81,7.81,0,0,0-1.78-.61L93.12,32a9.76,9.76,0,0,1-2.32-.85A4.84,4.84,0,0,1,89,29.55a4.91,4.91,0,0,1-.7-2.79A5.64,5.64,0,0,1,89,24,5.83,5.83,0,0,1,90.73,22a7.44,7.44,0,0,1,2.49-1.12,11.36,11.36,0,0,1,2.85-.36,13.53,13.53,0,0,1,3.68.53A6.89,6.89,0,0,1,102.9,23Z"/><path class="cls-5" d="M118.53,25.54h-5V31.7a11.55,11.55,0,0,0,.07,1.38,2.8,2.8,0,0,0,.35,1.09,1.7,1.7,0,0,0,.81.7,3.57,3.57,0,0,0,1.47.25,8.71,8.71,0,0,0,1.19-.1,2,2,0,0,0,1.12-.43v4.74a8.69,8.69,0,0,1-2,.46,17.45,17.45,0,0,1-2,.11,11.11,11.11,0,0,1-2.66-.3,6,6,0,0,1-2.12-1,4.49,4.49,0,0,1-1.43-1.73,5.93,5.93,0,0,1-.51-2.58V25.54h-3.65V21h3.65V15.52h5.7V21h5Z"/><path class="cls-5" d="M121.77,12.55h10a24.61,24.61,0,0,1,3.52.25,9.35,9.35,0,0,1,3.17,1,6,6,0,0,1,2.28,2.07,6.34,6.34,0,0,1,.87,3.53,5.63,5.63,0,0,1-1.27,3.78A7,7,0,0,1,137,25.32v.07a8,8,0,0,1,2.41.74,6.53,6.53,0,0,1,1.86,1.41,6,6,0,0,1,1.2,2,7,7,0,0,1,.42,2.43,6.56,6.56,0,0,1-.91,3.56,7.17,7.17,0,0,1-2.36,2.29,10.1,10.1,0,0,1-3.25,1.26,17.59,17.59,0,0,1-3.59.38h-11Zm5.92,10.75H132a6.07,6.07,0,0,0,1.35-.15,3.88,3.88,0,0,0,1.2-.49,2.56,2.56,0,0,0,.85-.91,2.7,2.7,0,0,0,.33-1.37,2.5,2.5,0,0,0-.36-1.39,2.45,2.45,0,0,0-.93-.85,4.33,4.33,0,0,0-1.3-.44,7.6,7.6,0,0,0-1.4-.13h-4Zm0,11.13H133a6.64,6.64,0,0,0,1.39-.15,3.76,3.76,0,0,0,1.27-.53,3,3,0,0,0,.93-1,2.85,2.85,0,0,0,.36-1.48,2.42,2.42,0,0,0-.47-1.54,3,3,0,0,0-1.2-.89,6.39,6.39,0,0,0-1.56-.42,12.69,12.69,0,0,0-1.56-.11h-4.48Z"/><path class="cls-5" d="M163,39.45H157.5V36.94h-.07a5.64,5.64,0,0,1-.78,1.06,4.76,4.76,0,0,1-1.16,1,6.57,6.57,0,0,1-1.56.69,6.71,6.71,0,0,1-1.9.26,8,8,0,0,1-3.51-.66,5.07,5.07,0,0,1-2.09-1.84,7.4,7.4,0,0,1-1-2.78,23.17,23.17,0,0,1-.24-3.45V21h5.69v9q0,.79.06,1.65a5.29,5.29,0,0,0,.34,1.58,2.48,2.48,0,0,0,2.57,1.63,3.45,3.45,0,0,0,1.78-.4,2.74,2.74,0,0,0,1.05-1.06,4.32,4.32,0,0,0,.47-1.5,12.33,12.33,0,0,0,.12-1.75V21H163Z"/><path class="cls-5" d="M176.78,26.42a4,4,0,0,0-3.31-1.56,3.07,3.07,0,0,0-1.4.34,1.2,1.2,0,0,0-.68,1.18,1.06,1.06,0,0,0,.7,1,10.12,10.12,0,0,0,1.78.57l2.32.53a8.92,8.92,0,0,1,2.32.89A5.3,5.3,0,0,1,180.29,31a4.94,4.94,0,0,1,.71,2.8,5.15,5.15,0,0,1-.78,2.94,6,6,0,0,1-2,1.86,8.54,8.54,0,0,1-2.73,1,16.35,16.35,0,0,1-3,.28,14.48,14.48,0,0,1-3.92-.55,7.31,7.31,0,0,1-3.34-2l3.46-3.84a5.71,5.71,0,0,0,1.76,1.5,4.81,4.81,0,0,0,2.27.51,5.28,5.28,0,0,0,1.78-.28,1.06,1.06,0,0,0,.8-1,1.17,1.17,0,0,0-.7-1.08,8.08,8.08,0,0,0-1.79-.61L170.49,32a9.53,9.53,0,0,1-2.31-.85,4.8,4.8,0,0,1-1.79-1.62,4.91,4.91,0,0,1-.7-2.79,5.64,5.64,0,0,1,.66-2.81A5.83,5.83,0,0,1,168.1,22a7.44,7.44,0,0,1,2.49-1.12,11.36,11.36,0,0,1,2.85-.36,13.53,13.53,0,0,1,3.68.53,6.89,6.89,0,0,1,3.15,1.9Z"/><path class="cls-5" d="M182.84,15.17a3.31,3.31,0,0,1,6.61,0,3.23,3.23,0,0,1-1,2.34,3.3,3.3,0,0,1-5.64-2.34Zm.45,5.82H189V39.45h-5.7Z"/><path class="cls-5" d="M192.11,21h5.47v2.5h.08a4.66,4.66,0,0,1,.76-1.06,5.34,5.34,0,0,1,1.18-.95,6.27,6.27,0,0,1,1.55-.68,6.46,6.46,0,0,1,1.9-.27,7.91,7.91,0,0,1,3.5.66A5.16,5.16,0,0,1,208.62,23a7.36,7.36,0,0,1,1,2.77,20.76,20.76,0,0,1,.27,3.46V39.45h-5.7v-9c0-.54,0-1.09-.05-1.66a5.22,5.22,0,0,0-.35-1.57,2.45,2.45,0,0,0-2.56-1.64,3.59,3.59,0,0,0-1.79.4,2.74,2.74,0,0,0-1,1.07,4.41,4.41,0,0,0-.48,1.5,13.89,13.89,0,0,0-.11,1.74v9.2h-5.7Z"/><path class="cls-5" d="M230.43,36.26A9,9,0,0,1,227,39a10.22,10.22,0,0,1-4.33.95,11.47,11.47,0,0,1-4-.68,9.61,9.61,0,0,1-3.27-2,9.12,9.12,0,0,1-2.19-3,9.7,9.7,0,0,1-.79-4,9.7,9.7,0,0,1,.79-4,9.26,9.26,0,0,1,2.19-3.06,9.61,9.61,0,0,1,3.27-2,11.71,11.71,0,0,1,4-.68,9.19,9.19,0,0,1,3.59.68,7.52,7.52,0,0,1,2.74,2,9.14,9.14,0,0,1,1.73,3.06,12.47,12.47,0,0,1,.6,4V32H218.08a4.5,4.5,0,0,0,1.49,2.6,4.16,4.16,0,0,0,2.81,1,4.33,4.33,0,0,0,2.37-.62,6.33,6.33,0,0,0,1.69-1.62Zm-4.82-8.13a3.39,3.39,0,0,0-3.5-3.5,4.15,4.15,0,0,0-1.67.31,4,4,0,0,0-1.23.78,3.21,3.21,0,0,0-.8,1.1,3.67,3.67,0,0,0-.33,1.31Z"/><path class="cls-5" d="M244.11,26.42a4,4,0,0,0-3.31-1.56,3.07,3.07,0,0,0-1.4.34,1.2,1.2,0,0,0-.68,1.18,1.06,1.06,0,0,0,.7,1,10.12,10.12,0,0,0,1.78.57l2.32.53a8.92,8.92,0,0,1,2.32.89A5.21,5.21,0,0,1,247.62,31a4.94,4.94,0,0,1,.71,2.8,5.15,5.15,0,0,1-.78,2.94,6,6,0,0,1-2,1.86,8.54,8.54,0,0,1-2.73,1,16.27,16.27,0,0,1-3,.28,14.48,14.48,0,0,1-3.92-.55,7.31,7.31,0,0,1-3.34-2L236,33.56a5.71,5.71,0,0,0,1.76,1.5,4.81,4.81,0,0,0,2.27.51,5.28,5.28,0,0,0,1.78-.28,1.06,1.06,0,0,0,.8-1,1.17,1.17,0,0,0-.7-1.08,8.08,8.08,0,0,0-1.79-.61L237.82,32a9.53,9.53,0,0,1-2.31-.85,4.8,4.8,0,0,1-1.79-1.62,4.91,4.91,0,0,1-.7-2.79,5.64,5.64,0,0,1,.66-2.81A5.83,5.83,0,0,1,235.43,22a7.44,7.44,0,0,1,2.49-1.12,11.36,11.36,0,0,1,2.85-.36,13.53,13.53,0,0,1,3.68.53A6.89,6.89,0,0,1,247.6,23Z"/><path class="cls-5" d="M260.78,26.42a4,4,0,0,0-3.3-1.56,3.11,3.11,0,0,0-1.41.34,1.22,1.22,0,0,0-.68,1.18,1.06,1.06,0,0,0,.7,1,10.26,10.26,0,0,0,1.79.57l2.31.53a8.78,8.78,0,0,1,2.32.89A5.33,5.33,0,0,1,264.3,31a4.94,4.94,0,0,1,.7,2.8,5.15,5.15,0,0,1-.78,2.94,6,6,0,0,1-2,1.86,8.6,8.6,0,0,1-2.74,1,16.19,16.19,0,0,1-3,.28,14.36,14.36,0,0,1-3.91-.55,7.35,7.35,0,0,1-3.35-2l3.46-3.84a5.63,5.63,0,0,0,1.77,1.5,4.77,4.77,0,0,0,2.26.51,5.24,5.24,0,0,0,1.78-.28,1,1,0,0,0,.8-1,1.15,1.15,0,0,0-.7-1.08,7.91,7.91,0,0,0-1.79-.61L254.5,32a9.45,9.45,0,0,1-2.32-.85,4.56,4.56,0,0,1-2.49-4.41,5.54,5.54,0,0,1,.67-2.81A5.8,5.8,0,0,1,252.1,22a7.44,7.44,0,0,1,2.49-1.12,11.48,11.48,0,0,1,2.85-.36,13.6,13.6,0,0,1,3.69.53,6.89,6.89,0,0,1,3.15,1.9Z"/></svg>